PathFileType	4	(X/Y/Z)	OpenSim_Sub02_CSBaseline_Gyro.trc
DataRate	CameraRate	NumFrames	NumMarkers	Units	OrigDataRate	OrigDataStartFrame	OrigNumFrames
100	100	17	8	m	100	6175	7057
Frame#	Time	torso_imu_offset_imu	pelvis_imu_offset_imu	tibia_r_imu_offset_imu	femur_r_imu_offset_imu	tibia_l_imu_offset_imu	femur_l_imu_offset_imu	toes_r_imu_offset_imu	toes_l_imu_offset_imu
				X1	Y1	Z1	X2	Y2	Z2	X3	Y3	Z3	X4	Y4	Z4	X5	Y5	Z5	X6	Y6	Z6	X7	Y7	Z7	X8		Y8	Z8	

6175	61.74000000	-0.91113387	-0.18443346	-0.31903274	-0.73303538	0.25019835	-0.20280373	-0.99256161	0.16353373	-1.80769051	-1.00951811	1.14710774	1.89980463	-0.31078991	0.10599132	0.82522151	-0.76438566	-0.32752525	0.76341696	-1.45970502	-4.58711421	-1.89218899	0.08234458	-0.03318584	-0.03778275
6176	61.75000000	-0.95365635	-0.23651137	-0.32625804	-0.60082326	0.19456559	-0.07896367	-1.11985674	0.02678788	-1.64193917	-0.80569155	1.09786797	1.89145209	-0.55012232	0.05444950	0.77624209	-0.97012865	-0.33929173	0.70544940	-1.79895959	-4.02459886	-2.00270589	0.10825219	-0.03885171	-0.04692386
6177	61.76000000	-0.97156916	-0.27583852	-0.31218899	-0.49600257	0.13602354	0.00883184	-1.37525419	-0.17201409	-1.48579143	-0.59745201	1.02031997	1.87927630	-0.65393061	0.03325920	0.82276341	-0.97684034	-0.37117986	0.63258598	-2.02771249	-3.42866356	-2.22838212	0.07404992	-0.04988933	-0.03918917
6178	61.77000000	-0.96096018	-0.31270361	-0.28584437	-0.39858110	0.08415419	0.06517436	-1.60016170	-0.39531842	-1.31952665	-0.44780087	0.92285503	1.85391435	-0.56177219	0.06556665	0.86299703	-0.78653242	-0.35449076	0.55146086	-2.28853019	-3.24127062	-2.63390131	0.04278227	-0.02863892	-0.02122443
6179	61.78000000	-0.93433647	-0.35286995	-0.25206774	-0.32523460	0.04164655	0.10545751	-1.69537092	-0.63842820	-1.09433039	-0.36599348	0.82801566	1.78291842	-0.16203148	0.02301335	0.88554804	-0.51866245	-0.33173598	0.49229796	-3.75712952	-2.10015192	-3.18460938	0.03713538	-0.06232685	0.02333859
6180	61.79000000	-0.89549860	-0.38300148	-0.21833689	-0.28113979	-0.00141743	0.13936214	-1.60614270	-0.78361516	-0.80629026	-0.35981938	0.75930457	1.67344678	0.41570053	-0.01954867	0.84690356	-0.27327583	-0.35904042	0.45216978	-4.84020930	0.96134741	-3.53184755	0.00057450	-0.05421376	0.05619739
6181	61.80000000	-0.84060253	-0.38891817	-0.18575284	-0.25122238	-0.03803106	0.17340058	-1.26776785	-0.84290592	-0.58193100	-0.42134869	0.72962409	1.56536719	0.85796623	-0.00246035	0.84622998	-0.03106073	-0.45554953	0.47852912	-3.82609784	2.08567283	-3.59013263	-0.01431935	-0.03838553	0.07988124
6182	61.81000000	-0.78237137	-0.38423613	-0.17391311	-0.23613967	-0.06279096	0.21640345	-0.89322763	-1.00882228	-0.44556613	-0.50006703	0.71165837	1.47602026	1.04691830	0.02561577	0.88770772	0.26435710	-0.53655192	0.54685979	-2.52842924	2.89105376	-3.41176128	0.00740120	-0.05736195	0.09481825
6183	61.82000000	-0.70801305	-0.37797357	-0.16247767	-0.24041053	-0.07543607	0.24584553	-0.88812708	-1.26783774	-0.22280233	-0.57240340	0.70636814	1.41020240	1.10847177	0.12049178	0.90034178	0.52524255	-0.54017662	0.51499905	-1.13568095	3.19475588	-3.00826611	0.01226464	-0.07732384	0.09172755
6184	61.83000000	-0.65148915	-0.35729896	-0.14613008	-0.25318848	-0.07494496	0.26808323	-1.26682690	-1.49640862	0.21390250	-0.62821868	0.70239942	1.37677346	1.04883364	0.20262800	0.84291124	0.69955394	-0.51532145	0.51135771	-0.30222698	3.40074281	-2.40808838	0.03038494	-0.08072372	0.08914353
6185	61.84000000	-0.60110216	-0.32210118	-0.13869133	-0.27881505	-0.07658580	0.29025373	-1.90557012	-1.64366866	0.83195059	-0.63250053	0.67410422	1.35760899	0.90738723	0.22309420	0.82741675	0.81592634	-0.48299183	0.50685416	0.15339289	3.34815326	-1.65239100	0.04463267	-0.08426154	0.08892106
6186	61.85000000	-0.56407469	-0.29040017	-0.11664869	-0.31414121	-0.06515277	0.32011701	-2.52677628	-1.70659585	1.44099361	-0.55607721	0.61852705	1.33951894	0.73494129	0.26632120	0.84642255	0.89133137	-0.43205260	0.48874837	0.30577579	3.28128282	-0.78438879	0.03687145	-0.10546447	0.10233380
6187	61.86000000	-0.54275867	-0.26741091	-0.08605094	-0.35437025	-0.04902762	0.35488188	-2.76587782	-1.61673251	1.87245178	-0.42736524	0.53344708	1.29454598	0.59154052	0.26912316	0.85537512	0.93034636	-0.35041534	0.42000429	-0.24110835	3.21863120	0.15670846	0.01474316	-0.10075323	0.10892997
6188	61.87000000	-0.54315189	-0.25440387	-0.07635408	-0.37894398	-0.01972854	0.38442462	-2.51477351	-1.41135665	2.15103570	-0.25750440	0.46500355	1.23728773	0.56918937	0.28971184	0.86693224	0.94685299	-0.30513946	0.35560274	-0.80212113	3.25108932	1.03327291	0.00760205	-0.09914802	0.12449070
6189	61.88000000	-0.55296608	-0.25623326	-0.09503762	-0.37273828	0.02866618	0.40216045	-1.94227524	-1.20541965	2.30594673	-0.05423918	0.43470118	1.20004608	0.58705946	0.32809002	0.87545592	0.93150948	-0.28012780	0.32735536	-1.14839231	3.38607561	1.69979582	-0.01230506	-0.09599148	0.13935990
6190	61.89000000	-0.55944735	-0.25913873	-0.09298325	-0.33824532	0.08804785	0.40585479	-1.14819642	-1.09659881	2.34273898	0.15737294	0.42999381	1.18863865	0.61795351	0.34035196	0.89977126	0.84814891	-0.26022253	0.29967435	-1.05941212	3.62595691	2.09880615	-0.02797352	-0.08205927	0.15112453
6191	61.90000000	-0.56660588	-0.26158955	-0.09024947	-0.30235955	0.14245914	0.39599041	-0.20389535	-1.01675270	2.37971187	0.37574093	0.42322911	1.16030029	0.64434491	0.35065363	0.92046843	0.71141399	-0.24716804	0.27349657	-0.88237456	3.91581401	2.28726209	-0.02487563	-0.07368735	0.16016766
